<svg width="82" height="30" viewBox="0 0 82 30" fill="none" xmlns="http://www.w3.org/2000/svg">
<g clip-path="url(#clip0_80_7042)">
<path d="M74.4917 0H7.15101C6.87599 0 6.60426 0 6.32996 0.0015C6.10035 0.003 5.87257 0.0073575 5.64075 0.011025C5.13714 0.0169514 4.63471 0.0612572 4.13783 0.143558C3.64164 0.227649 3.161 0.386187 2.71217 0.613807C2.26387 0.843354 1.85426 1.14163 1.49818 1.4978C1.14023 1.85298 0.841847 2.26351 0.614513 2.71362C0.38655 3.16283 0.22848 3.6442 0.145763 4.14111C0.0622582 4.63739 0.0173238 5.13939 0.0113625 5.64261C0.0044025 5.87256 0.0036675 6.10327 0 6.33325V23.6689C0.0036675 23.9018 0.0044025 24.1274 0.0113625 24.3604C0.0173256 24.8636 0.06226 25.3655 0.145763 25.8618C0.228252 26.359 0.386331 26.8406 0.614513 27.29C0.841744 27.7387 1.14017 28.1475 1.49818 28.5007C1.85291 28.8585 2.26279 29.157 2.71217 29.3848C3.161 29.613 3.64159 29.7725 4.13783 29.8579C4.63479 29.9395 5.13717 29.9838 5.64075 29.9905C5.87257 29.9956 6.10035 29.9985 6.32996 29.9985C6.60425 30 6.876 30 7.15101 30H74.4917C74.7613 30 75.0352 30 75.3047 29.9985C75.5332 29.9985 75.7676 29.9956 75.9961 29.9905C76.4988 29.9842 77.0002 29.9399 77.4961 29.8579C77.994 29.7719 78.4763 29.6124 78.9273 29.3848C79.3763 29.1569 79.7858 28.8584 80.1402 28.5007C80.4973 28.1462 80.7963 27.7376 81.0264 27.29C81.2529 26.8403 81.4094 26.3587 81.4907 25.8618C81.5743 25.3655 81.6209 24.8636 81.6299 24.3604C81.6328 24.1274 81.6328 23.9018 81.6328 23.6689C81.6387 23.3965 81.6387 23.1255 81.6387 22.8486V7.1521C81.6387 6.87744 81.6387 6.60498 81.6328 6.33325C81.6328 6.10327 81.6328 5.87256 81.6299 5.64258C81.6209 5.13932 81.5743 4.63743 81.4907 4.14108C81.4092 3.64446 81.2526 3.16313 81.0264 2.71359C80.5634 1.8114 79.8293 1.07702 78.9273 0.61374C78.4763 0.386676 77.9939 0.22818 77.4961 0.14349C77.0003 0.0608271 76.4988 0.0165058 75.9961 0.01092C75.7676 0.00726 75.5332 0.002865 75.3047 0.0014025C75.0352 0 74.7613 0 74.4917 0Z" fill="#A6A6A6"/>
<path d="M6.33365 29.3438C6.10514 29.3438 5.88215 29.3408 5.65543 29.3357C5.18577 29.3296 4.7172 29.2887 4.25358 29.2134C3.82127 29.1389 3.40248 29.0004 3.01102 28.8025C2.62315 28.6061 2.26939 28.3487 1.96327 28.04C1.65273 27.735 1.39419 27.3812 1.19789 26.9927C0.999432 26.6016 0.862087 26.1824 0.79064 25.7498C0.713483 25.2848 0.671738 24.8147 0.665765 24.3435C0.66101 24.1853 0.654785 23.6587 0.654785 23.6587V6.33325C0.654785 6.33325 0.661415 5.8147 0.665803 5.66235C0.671522 5.19186 0.713024 4.72249 0.78995 4.2583C0.861529 3.82444 0.99898 3.40406 1.19755 3.01172C1.39312 2.62346 1.65023 2.2694 1.9589 1.96326C2.26723 1.65422 2.62213 1.39545 3.01066 1.19641C3.40121 0.99907 3.81921 0.861549 4.25065 0.788453C4.71579 0.712377 5.18599 0.671247 5.65728 0.665408L6.33402 0.65625H75.301L75.9858 0.665775C76.4529 0.671324 76.9188 0.712087 77.3796 0.787717C77.8154 0.861731 78.2378 1.00021 78.6328 1.19861C79.4112 1.59974 80.0445 2.23437 80.4441 3.01355C80.6395 3.40318 80.7748 3.82013 80.8455 4.25025C80.9234 4.71825 80.9669 5.19131 80.9759 5.66566C80.9781 5.87806 80.9781 6.10621 80.9781 6.33326C80.984 6.61451 80.984 6.88221 80.984 7.15211V22.8486C80.984 23.1211 80.984 23.387 80.9781 23.655C80.9781 23.8989 80.9781 24.1223 80.9751 24.3523C80.9664 24.8182 80.9235 25.2828 80.847 25.7424C80.777 26.1782 80.6404 26.6006 80.442 26.9949C80.2443 27.3792 79.9872 27.7299 79.6803 28.0342C79.3739 28.3445 79.0195 28.6035 78.6307 28.8011C78.2368 29.0005 77.815 29.1396 77.3797 29.2134C76.9161 29.2891 76.4475 29.33 75.9778 29.3357C75.7581 29.3408 75.5281 29.3438 75.3048 29.3438L74.4918 29.3452L6.33365 29.3438Z" fill="black"/>
<path d="M30.8755 12.416H27.8369L27.1071 14.5708H25.8201L28.6983 6.59882H30.0355L32.9137 14.5707H31.6047L30.8755 12.416ZM28.1515 11.4217H30.5602L29.3728 7.92475H29.3396L28.1515 11.4217Z" fill="white"/>
<path d="M39.1297 11.665C39.1297 13.4711 38.163 14.6315 36.7041 14.6315C36.3346 14.6509 35.9671 14.5657 35.6436 14.3859C35.3202 14.2061 35.054 13.9388 34.8754 13.6147H34.8478V16.4935H33.6548V8.75854H34.8096V9.72529H34.8315C35.0183 9.40273 35.289 9.13684 35.6149 8.9559C35.9408 8.77497 36.3096 8.68577 36.6822 8.69779C38.1573 8.69774 39.1297 9.86381 39.1297 11.665ZM37.9034 11.665C37.9034 10.4882 37.2953 9.71461 36.3675 9.71461C35.4559 9.71461 34.8428 10.5045 34.8428 11.665C34.8428 12.836 35.4559 13.6203 36.3675 13.6203C37.2953 13.6203 37.9034 12.8523 37.9034 11.665Z" fill="white"/>
<path d="M45.527 11.665C45.527 13.4711 44.5599 14.6315 43.1011 14.6315C42.7315 14.6509 42.364 14.5657 42.0406 14.3859C41.7172 14.2061 41.4509 13.9388 41.2724 13.6147H41.2448V16.4935H40.0518V8.75854H41.2065V9.72529H41.2285C41.4153 9.40273 41.686 9.13684 42.0119 8.9559C42.3378 8.77497 42.7066 8.68577 43.0792 8.69779C44.5543 8.69774 45.527 9.86381 45.527 11.665ZM44.3004 11.665C44.3004 10.4882 43.6923 9.71461 42.7644 9.71461C41.8529 9.71461 41.2398 10.5045 41.2398 11.665C41.2398 12.836 41.8529 13.6203 42.7644 13.6203C43.6923 13.6203 44.3004 12.8523 44.3004 11.665Z" fill="white"/>
<path d="M49.7542 12.3495C49.8426 13.1401 50.6106 13.6592 51.66 13.6592C52.6656 13.6592 53.3891 13.1401 53.3891 12.4273C53.3891 11.8085 52.9527 11.438 51.9196 11.1841L50.8864 10.9352C49.4226 10.5816 48.743 9.89701 48.743 8.78611C48.743 7.41061 49.9417 6.46588 51.6431 6.46588C53.3283 6.46588 54.4831 7.41065 54.5219 8.78611H53.3176C53.2455 7.99055 52.5879 7.51036 51.6268 7.51036C50.6658 7.51036 50.0081 7.99623 50.0081 8.70339C50.0081 9.267 50.4281 9.59864 51.4557 9.85254L52.334 10.0682C53.9696 10.455 54.6486 11.112 54.6486 12.2781C54.6486 13.7695 53.4612 14.7036 51.5716 14.7036C49.8037 14.7036 48.6101 13.7915 48.533 12.3496L49.7542 12.3495Z" fill="white"/>
<path d="M57.2247 7.38311V8.75861H58.3299V9.70338H57.2247V12.9076C57.2247 13.4053 57.446 13.6373 57.9318 13.6373C58.063 13.635 58.194 13.6258 58.3243 13.6097V14.5488C58.1058 14.5897 57.8838 14.6082 57.6616 14.604C56.4849 14.604 56.026 14.162 56.026 13.0348V9.70334H55.1809V8.75856H56.026V7.38306L57.2247 7.38311Z" fill="white"/>
<path d="M58.9695 11.6649C58.9695 9.83622 60.0465 8.68707 61.726 8.68707C63.4112 8.68707 64.4832 9.83622 64.4832 11.6649C64.4832 13.4987 63.4169 14.6428 61.726 14.6428C60.0359 14.6428 58.9695 13.4987 58.9695 11.6649ZM63.2676 11.6649C63.2676 10.4105 62.6928 9.67008 61.7261 9.67008C60.7593 9.67008 60.1845 10.4161 60.1845 11.6649C60.1845 12.9244 60.7593 13.6592 61.7261 13.6592C62.6928 13.6592 63.2676 12.9244 63.2676 11.6649Z" fill="white"/>
<path d="M65.4668 8.7585H66.6047V9.74775H66.6322C66.7092 9.43879 66.8902 9.16575 67.1448 8.97451C67.3994 8.78328 67.712 8.68552 68.0302 8.69766C68.1677 8.69718 68.3048 8.71211 68.439 8.74218V9.85809C68.2654 9.80506 68.0844 9.78071 67.903 9.786C67.7296 9.77896 67.5568 9.80952 67.3965 9.87558C67.2361 9.94163 67.0919 10.0416 66.9737 10.1686C66.8556 10.2957 66.7664 10.4468 66.7122 10.6116C66.658 10.7763 66.6401 10.9509 66.6598 11.1232V14.5707H65.4668V8.7585Z" fill="white"/>
<path d="M73.9397 12.8636C73.8086 13.4129 73.4827 13.8959 73.0224 14.2231C72.5622 14.5503 71.9989 14.6994 71.437 14.6428C69.7462 14.6428 68.6968 13.51 68.6968 11.6925C68.6968 9.86944 69.7519 8.68707 71.3869 8.68707C72.9949 8.68707 74.0062 9.7917 74.0062 11.554V11.9627H69.9011V12.0348C69.8822 12.2487 69.9089 12.4642 69.9797 12.667C70.0504 12.8697 70.1635 13.0551 70.3113 13.2108C70.4592 13.3665 70.6385 13.489 70.8374 13.5701C71.0362 13.6512 71.25 13.689 71.4646 13.6811C71.7466 13.7075 72.0295 13.6422 72.2713 13.4949C72.5132 13.3477 72.701 13.1262 72.8069 12.8636L73.9397 12.8636ZM69.9067 11.1289H72.8125C72.8232 10.9366 72.7941 10.7441 72.7269 10.5636C72.6597 10.3831 72.5559 10.2184 72.422 10.0799C72.2881 9.94135 72.1271 9.832 71.949 9.75868C71.7708 9.68535 71.5795 9.64964 71.3869 9.65378C71.1926 9.65262 71 9.68995 70.8203 9.76361C70.6405 9.83727 70.4771 9.94581 70.3395 10.083C70.2019 10.2201 70.0928 10.3831 70.0185 10.5627C69.9442 10.7422 69.9062 10.9346 69.9067 11.1289Z" fill="white"/>
<path d="M27.3274 23.1086L27.3768 22.4941C27.6072 22.5685 27.8477 22.6068 28.0898 22.6076C28.3088 22.6076 28.3934 22.5864 28.4996 22.4377C28.7578 21.8972 28.8697 21.2984 28.8241 20.7011C28.8241 20.0654 28.6267 19.8816 28.1254 19.8816C28.0122 19.8816 27.8851 19.8889 27.7438 19.8962C27.474 20.9928 27.0256 22.0375 26.4166 22.9885L25.8303 22.6706C26.4023 21.8487 26.8209 20.9301 27.0659 19.9592C26.6791 20.001 26.2949 20.0648 25.9153 20.1503L25.7882 19.5285C26.2189 19.4509 26.7341 19.3806 27.2142 19.3381C27.3129 18.8693 27.386 18.3954 27.4332 17.9186L28.1254 17.9963C28.0616 18.4269 27.984 18.8583 27.8851 19.2817H28.1605C29.0574 19.2817 29.488 19.7263 29.488 20.6726C29.5269 21.3946 29.3863 22.1151 29.0786 22.7695C28.9976 22.9199 28.8739 23.043 28.7232 23.1234C28.5724 23.2038 28.4013 23.2379 28.2312 23.2214C27.9265 23.2193 27.6232 23.1815 27.3274 23.1086ZM29.6008 19.303L30.1164 18.9565C30.8314 19.6461 31.2621 20.5784 31.3238 21.5698L30.646 21.6753C30.641 21.2298 30.5458 20.7899 30.3662 20.3821C30.1866 19.9744 29.9262 19.6073 29.6008 19.303Z" fill="white"/>
<path d="M33.665 23.2075L33.524 22.5718C33.7005 22.5864 33.9334 22.593 34.0748 22.593C35.4726 22.593 36.0021 22.1983 36.0021 21.6116C36.0021 21.1458 35.6985 20.8777 35.0207 20.8777C34.2816 20.9455 33.5932 21.2822 33.086 21.824L32.5422 21.5838C32.4392 20.6588 32.6506 19.7261 33.1424 18.936L33.7708 19.1404C33.3793 19.6691 33.1891 20.3201 33.2344 20.9765C33.8006 20.5772 34.4698 20.3491 35.1621 20.3195C36.1084 20.3195 36.6943 20.8066 36.6943 21.5976C36.6943 22.6003 35.9033 23.2148 34.0042 23.2148C33.9122 23.2149 33.7781 23.2075 33.665 23.2075ZM33.0084 18.5193L33.1849 17.8975C34.1242 18.0412 35.0518 18.2537 35.96 18.5332L35.7905 19.1477C34.8839 18.8551 33.9527 18.6448 33.0084 18.5193Z" fill="white"/>
<path d="M38.7393 22.7205C39.4674 22.4808 40.1215 22.0575 40.6384 21.4915C40.2289 21.152 39.7867 20.8542 39.3182 20.6023L39.7064 20.1152C40.1787 20.3555 40.6278 20.6389 41.0479 20.9619C41.3852 20.4699 41.6206 19.9153 41.74 19.3308H39.9393C39.5256 20.0011 39.0058 20.5997 38.4001 21.1033L37.8845 20.6587C38.7562 19.9397 39.4316 19.0117 39.8478 17.9612L40.5256 18.1238C40.448 18.3216 40.3704 18.5259 40.2784 18.717H42.0297L42.531 18.95C42.4094 19.9083 42.0308 20.816 41.4354 21.5767C40.8399 22.3375 40.0498 22.923 39.1487 23.2713L38.7393 22.7205ZM41.7187 17.792L42.1142 17.6008C42.315 17.8696 42.4833 18.1612 42.6156 18.4695L42.1706 18.6746C42.0587 18.3621 41.9068 18.0655 41.7187 17.792ZM42.6013 17.721L43.0038 17.5305C43.2072 17.8077 43.3801 18.1061 43.5194 18.4204L43.0745 18.6108C42.9561 18.2949 42.7971 17.9957 42.6013 17.721Z" fill="white"/>
<path d="M45.6911 23.2427L45.3311 22.6706C46.0588 22.5545 46.717 22.171 47.1767 21.5951C47.6364 21.0192 47.8646 20.2924 47.8166 19.5571H44.8511V20.9766H44.1377V18.9565H45.9101V17.9187H46.6232V18.9565H47.9437L48.5934 19.1404C48.5084 21.1458 47.8379 22.678 45.6911 23.2427Z" fill="white"/>
<path d="M49.967 19.0063L50.3625 18.427C50.9802 18.7093 51.563 19.0625 52.0991 19.4795L51.6472 20.0867C51.1327 19.6602 50.5686 19.2974 49.967 19.0063ZM50.1011 22.4875C50.965 22.3575 51.7855 22.0232 52.4941 21.5122C53.2028 21.0012 53.7793 20.3284 54.1755 19.5498L54.6414 20.0727C54.2111 20.8768 53.6024 21.5716 52.862 22.1039C52.1215 22.6362 51.2691 22.992 50.3699 23.1438L50.1011 22.4875Z" fill="white"/>
<path d="M60.4282 22.8267H55.9868V18.6248H60.4282L60.4282 22.8267ZM56.6863 19.2744V22.177H59.7222V19.2744H56.6863Z" fill="white"/>
<path d="M66.7871 20.9407H61.7949V20.2207H66.7871V20.9407Z" fill="white"/>
<path d="M68.4856 17.9399H69.1843V19.7476C70.1136 20.1343 71.015 20.5851 71.8818 21.0967L71.4863 21.7177C70.7518 21.2476 69.9822 20.8345 69.1843 20.4822V23.2075H68.4856V17.9399ZM70.1445 18.3215L70.5613 18.1238C70.7654 18.4232 70.9338 18.7454 71.063 19.084L70.6038 19.2891C70.4932 18.948 70.3389 18.6228 70.1445 18.3215ZM70.9495 18.0176L71.3735 17.8198C71.5879 18.1175 71.7657 18.4399 71.9031 18.78L71.4438 18.9851C71.3179 18.6442 71.1519 18.3194 70.9495 18.0176Z" fill="white"/>
<path d="M18.5766 15.2256C18.5847 14.5996 18.751 13.9858 19.06 13.4413C19.369 12.8968 19.8107 12.4394 20.344 12.1115C20.0052 11.6276 19.5583 11.2294 19.0387 10.9485C18.519 10.6676 17.9411 10.5117 17.3507 10.4932C16.0912 10.3611 14.8703 11.2469 14.2285 11.2469C13.5743 11.2469 12.5862 10.5064 11.5221 10.5283C10.8339 10.5505 10.1631 10.7506 9.5752 11.1092C8.98729 11.4677 8.50228 11.9724 8.16743 12.5742C6.71693 15.0855 7.79887 18.7763 9.18833 20.8062C9.88351 21.8002 10.696 22.9106 11.7591 22.8712C12.7993 22.8281 13.1879 22.2078 14.4436 22.2078C15.6877 22.2078 16.0522 22.8712 17.1369 22.8462C18.2531 22.828 18.9565 21.8477 19.6272 20.8443C20.1267 20.136 20.5111 19.3532 20.7661 18.5249C20.1175 18.2506 19.5641 17.7915 19.1747 17.2048C18.7854 16.6181 18.5774 15.9297 18.5766 15.2256Z" fill="white"/>
<path d="M16.5279 9.15819C17.1366 8.42753 17.4364 7.4884 17.3638 6.54022C16.434 6.63789 15.575 7.08231 14.9581 7.78493C14.6565 8.12818 14.4255 8.52751 14.2784 8.96008C14.1312 9.39266 14.0707 9.85001 14.1004 10.306C14.5655 10.3108 15.0256 10.21 15.4461 10.0111C15.8666 9.81232 16.2365 9.52068 16.5279 9.15819Z" fill="white"/>
</g>
<defs>
<clipPath id="clip0_80_7042">
<rect width="81.6387" height="30" fill="white"/>
</clipPath>
</defs>
</svg>
