<svg width="390" height="445" viewBox="0 0 390 445" fill="none" xmlns="http://www.w3.org/2000/svg">
<path d="M5.03345 53.1579C5.77712 46.4649 21.7276 47.4065 26.0527 46.4318C31.929 45.1076 38.4991 45.4275 44.5497 45.591C52.1883 45.7975 55.7879 50.0027 61.3651 54.1856C71.7269 61.9569 82.417 69.6324 91.6328 78.8482C96.2306 83.446 100.521 90.5897 103.59 96.4109C107.876 104.54 112.894 112.213 117.043 120.42C120.225 126.714 123.636 132.244 128.627 137.235C134.334 142.943 140.473 149.513 147.311 153.864C151.556 156.566 155.307 160.064 159.735 162.458C162.693 164.057 167.189 166.256 169.638 168.53C173.646 172.252 177.109 175.802 182.249 177.779C185.863 179.169 191.292 181.565 194.207 184.318C195.5 185.539 196.97 187.435 198.411 188.335C200.822 189.842 198.44 189.363 196.729 189.363C196.067 189.363 192.49 189.22 194.767 190.204C198.755 191.925 202.793 193.611 206.818 195.248C213.89 198.123 220.988 200.939 228.024 203.843C245.074 210.879 262.43 216.47 279.965 222.153C287.5 224.595 294.722 225.603 302.479 226.544C305.838 226.951 311.32 225.999 314.437 227.384C320.876 230.246 329.008 229.452 334.615 234.764C336.181 236.248 338.378 237.946 339.473 239.809C340.955 242.328 339.025 236.222 338.819 235.605" stroke="#CDB5AB" stroke-opacity="0.8" stroke-width="90" stroke-linecap="round" stroke-dasharray="80 80"/>
<path d="M367.405 297.822C363.436 293.853 359.131 289.201 356.289 284.37C354.849 281.923 352.139 280.587 349.749 279.325C344.912 276.772 340.387 273.614 335.456 271.104C324.352 265.451 312.3 262.51 299.957 262.51C291.616 262.51 289.056 264.469 285.197 271.758C282.892 276.112 275.084 278.688 270.717 279.512C261.701 281.213 253.715 286.487 245.307 289.601C240.398 291.419 235.703 291.937 230.36 291.937C223.592 291.937 217.369 286.823 211.209 284.183C192.601 276.208 173.497 270.999 160.576 254.756C156.392 249.496 151.614 244.45 146.937 239.622C140.468 232.945 135.485 224.685 130.121 217.108C118.965 201.347 110.449 184.147 99.3865 168.343C88.1141 152.24 79.6635 136.649 63.0465 125.464C58.798 122.605 54.564 120.506 49.781 118.738C45.9381 117.318 41.5439 117.132 37.8234 115.375C35.5152 114.285 27.7341 112.735 27.7341 110.33" stroke="#CDB5AB" stroke-opacity="0.8" stroke-width="90" stroke-linecap="round" stroke-dasharray="80 80"/>
<path d="M0.82959 174.229C11.4312 174.229 21.3883 175.138 30.2566 181.609C33.7766 184.178 38.9828 186.04 43.055 187.494C51.6012 190.547 60.0581 193.258 68.5116 196.509C82.9151 202.049 93.7314 212.879 106.767 220.845C110.644 223.214 115.027 226.939 119.425 228.038C123.539 229.067 131.149 237.952 131.149 229.72" stroke="#CDB5AB" stroke-opacity="0.8" stroke-width="90" stroke-linecap="round" stroke-dasharray="80 80"/>
<path d="M-3 18.8603C34.8333 10.8603 115.9 14.8603 137.5 94.8603C160.833 132.027 222.9 203.36 284.5 191.36C303.833 185.027 350.1 183.06 380.5 225.86" stroke="black"/>
<path d="M-58.0687 248.578C-24.9021 228.695 53.0491 206.08 99.5212 274.687C133.685 302.231 215.596 349.467 269.932 318.063C286.149 305.779 329.254 288.855 371.934 319.423" stroke="black"/>
</svg>
