<svg width="80" height="80" viewBox="0 0 80 80" fill="none" xmlns="http://www.w3.org/2000/svg">
<g clip-path="url(#clip0_80_7071)">
<path d="M66.7232 0.212158H13.2767C6.0613 0.212158 0.212036 6.06142 0.212036 13.2768V66.7233C0.212036 73.9387 6.0613 79.788 13.2767 79.788H66.7232C73.9386 79.788 79.7879 73.9387 79.7879 66.7233V13.2768C79.7879 6.06142 73.9386 0.212158 66.7232 0.212158Z" fill="url(#paint0_linear_80_7071)" stroke="#040000" stroke-width="0.5" stroke-miterlimit="10"/>
<path d="M57.2133 62.8547C57.2133 62.8547 64.56 61.5822 67.2832 57.2641C67.7329 56.7381 66.8591 57.1283 67.0457 55.9661C67.2323 54.8038 67.2154 54.8378 67.7074 54.5918C68.1995 54.3457 68.5134 53.7773 68.683 53.947C68.8527 54.1167 69.2938 54.1336 69.5908 53.9131C69.8877 53.6925 65.1708 48.9756 63.822 48.6787" fill="#FDFDFE"/>
<path d="M57.2133 62.8547C60.9375 61.964 65.103 60.1824 67.2069 57.069C66.5367 56.6872 66.876 55.5843 67.0457 54.9226C67.139 54.6002 67.5208 54.4815 67.7498 54.3372C68.0043 54.193 68.191 53.8537 68.5473 53.7349C68.683 53.6925 68.7848 53.8113 68.9121 53.8622C69.0818 53.9131 69.3023 53.8791 69.4466 53.7858C69.4466 53.7858 69.5059 53.7434 69.4466 53.7943C69.4126 53.8197 69.4211 53.8707 69.4126 53.8876C68.5982 52.6914 67.4699 51.6649 66.4264 50.6469C65.612 49.9258 64.84 49.0859 63.822 48.6787C64.3564 48.8229 64.8145 49.1623 65.2642 49.4677C66.8506 50.7063 68.683 52.123 69.7774 53.8197C69.7944 53.8876 69.7774 53.9555 69.7435 54.0149C69.4296 54.3033 68.9036 54.3627 68.5558 54.0743C68.5558 54.0997 68.6236 54.0997 68.6321 54.0997C68.4625 54.21 68.2419 54.4815 67.9874 54.6511C67.7074 54.8378 67.4699 54.8887 67.4359 55.0584C67.3426 55.4486 67.1645 56.1442 67.2917 56.526C67.3766 56.7296 67.7583 56.8484 67.6141 57.1708C65.4508 60.5727 61.1242 62.1845 57.2302 62.8547H57.2133Z" fill="#3E3E3E"/>
<path d="M51.8771 38.6087C52.9884 38.3288 64.1019 37.7773 64.3564 38.4645C64.6109 39.1517 64.4752 42.3245 64.1783 45.3701C63.8813 48.4157 63.6777 48.8144 63.7371 51.3256C63.7965 53.8367 62.4985 55.245 62.5833 54.7614C63.1008 52.3097 62.2525 53.5143 62.2525 53.5143C61.2769 60.2333 49.8665 70.982 48.9757 71.3892C48.0849 71.7964 46.6682 71.3892 45.4974 72.1273C44.3267 72.8653 41.0775 73.9682 40.3055 73.7985C39.5335 73.6289 41.0945 72.1697 35.173 70.1506C29.2514 68.1315 17.0181 73.0435 15.6268 73.3913C14.2355 73.7391 6.1931 68.5557 6.23552 67.4528C6.27794 66.35 20.7509 42.0785 21.1411 41.5355C21.5314 40.9926 21.5993 38.6426 21.6417 38.0149C21.6841 37.3871 20.0213 23.9661 19.6226 23.1008C19.2239 22.2354 16.2292 20.5896 15.7626 19.8516C15.296 19.1135 16.6364 14.439 16.4837 12.4539C16.4837 12.4539 16.3479 11.86 16.4837 11.2916C16.6194 10.7232 16.9418 10.6299 16.9078 10.7826C16.8739 10.9353 16.3225 12.4793 17.0012 13.2598C17.6798 14.0403 20.0383 11.1135 20.7339 9.72218C21.4296 8.33087 23.3299 8.27149 23.8219 8.67022C24.314 9.06894 25.4253 10.579 25.5865 11.3341C25.5865 11.3341 26.7148 11.8855 24.7551 17.5949L25.6035 18.4518L27.385 21.0477C28.157 21.9131 29.0309 22.6935 29.9895 23.3553L51.8856 38.6002L51.8771 38.6087Z" fill="#FDFDFE"/>
<path d="M51.877 38.6087C55.7795 38.1676 59.7413 37.9639 63.6607 38.2015C63.9831 38.2524 64.4497 38.2524 64.4497 38.685C64.7551 42.2821 64.1019 45.9046 63.8304 49.4761C63.771 51.2577 64.051 53.2513 62.8802 54.7614C62.6851 55.0244 62.3627 55.0414 62.49 54.6172C62.6003 54.2609 62.6596 53.6161 62.5918 53.3277C62.5663 53.3192 62.3967 53.4634 62.3288 53.5737L62.3458 53.5228C61.8792 56.2545 60.3606 58.6384 58.8166 60.8781C56.0001 64.7381 52.8187 68.369 49.1368 71.4316C48.1188 71.9406 47.1008 71.5928 46.1082 71.9745C44.2843 72.8738 42.3585 73.8918 40.28 73.9343C40.0679 73.9343 39.8728 73.6543 39.8558 73.4677C39.6692 72.6448 39.0075 72.1188 38.2949 71.6776C36.5472 70.6935 34.6045 69.93 32.5854 69.8282C27.1475 69.667 21.8537 71.4825 16.7466 73.1877C16.4242 73.298 16.1019 73.4083 15.771 73.5101C14.6596 73.6967 13.7265 72.9671 12.7763 72.5599C10.4009 71.1771 7.8728 69.8876 6.10822 67.7158C5.9131 67.3425 6.20154 66.9268 6.35424 66.5875L6.82084 65.6713C11.2153 57.5949 15.9831 49.7137 20.7169 41.824C21.3362 41.0265 21.3023 39.9576 21.3956 38.9735C21.5483 37.8282 21.2683 36.0976 21.1496 34.9353C20.7508 31.5758 20.3182 28.1569 19.8007 24.8144C19.6904 24.3648 19.631 23.2789 19.3256 22.9311C18.3245 21.8452 16.8484 21.1495 15.754 20.0721C15.3553 19.6564 15.5165 18.9777 15.5504 18.4772C15.771 16.5005 16.3733 14.3457 16.3394 12.4539C16.2376 11.8091 16.1867 10.9947 16.7721 10.562C16.8145 10.5536 16.8569 10.5196 16.9587 10.562C17.069 10.6129 17.069 10.7402 17.0605 10.7741C16.8654 11.4613 16.6872 12.2418 16.9587 12.8865C17.5101 14.2609 19.9958 10.7317 20.3606 10.1209C20.5472 9.84094 20.666 9.50159 20.9205 9.20467C21.6416 8.39025 22.999 7.97455 23.9661 8.58537C24.7296 9.36586 25.3659 10.2142 25.7222 11.2747L25.6543 11.1898C25.9682 11.4528 25.9598 11.7413 26.0191 12.0212C26.1379 13.9385 25.4423 15.8049 24.8739 17.6034L24.8484 17.4846C24.8484 17.4846 25.6883 18.3499 25.6968 18.3499L27.4783 20.9544C28.8272 22.5578 31.6013 24.3139 33.3659 25.5695C37.2853 28.3181 47.8389 35.7328 51.8855 38.5748L51.877 38.6087ZM51.877 38.6087C47.754 35.7582 37.2514 28.5048 33.2641 25.7476C31.4486 24.4836 28.7254 22.8038 27.2917 21.1156C27.2917 21.1156 25.5101 18.5196 25.5016 18.5111C25.561 18.562 24.6618 17.6713 24.6703 17.6713L24.6194 17.6204C24.9672 16.5769 25.298 15.5249 25.5356 14.4475C25.6883 13.4974 26.0785 12.14 25.4677 11.351C25.2896 10.7232 24.8654 10.1294 24.4666 9.56946C24.0594 9.02651 23.6522 8.48356 22.8802 8.58537C21.7858 8.60233 21.0054 9.30647 20.5812 10.2736C20.0128 11.1813 19.368 12.0212 18.596 12.7678C16.6363 14.736 16.2037 12.3606 16.7721 10.7487C16.7721 10.7487 16.7721 10.8081 16.8314 10.842C16.8908 10.859 16.8908 10.842 16.8908 10.842C16.8654 10.8505 16.806 10.9099 16.7721 10.9692C16.5345 11.3934 16.543 11.9449 16.6363 12.4115C16.6872 13.8197 16.3903 15.1601 16.1782 16.509C16.0255 17.4931 15.788 18.5111 15.8389 19.5037C15.8558 19.6734 15.8983 19.7497 16.0085 19.8685C17.1114 20.9374 18.5027 21.5652 19.6056 22.7359C19.8601 23.0159 19.9025 23.4062 19.9788 23.754C20.6236 27.4274 21.0732 31.1941 21.5313 34.8929C21.6586 36.0891 21.9385 37.7943 21.7858 38.9905C21.6925 40.0085 21.718 41.1453 21.0563 42.0106C16.6787 49.3065 12.3521 56.6448 8.17821 64.0594C7.76251 64.8823 6.76994 66.5196 6.46453 67.4104C6.67662 67.9958 7.36379 68.4454 7.88128 68.9035C9.47619 70.1591 11.2068 71.2619 12.9884 72.2121C13.8198 72.5939 14.7954 73.2556 15.7116 73.1453C18.613 72.1782 21.5229 71.1686 24.5091 70.4645C28.437 69.5822 32.8145 68.7169 36.6406 70.4814C37.8876 71.0414 39.2959 71.5843 40.0085 72.8568C40.1867 73.1707 40.1782 73.6373 40.3818 73.6119C42.0107 73.544 43.665 72.8399 45.1326 72.1442C45.684 71.7709 46.4051 71.4995 47.0923 71.4655C47.771 71.3892 48.5006 71.4655 49.0266 71.1686C50.613 69.93 52.0467 68.4284 53.4465 66.9777C56.9841 63.0074 60.9799 58.7911 62.1676 53.4634C62.2015 53.3616 62.2949 53.2937 62.3627 53.2174C62.4306 53.1665 62.49 53.0732 62.6681 53.0817C62.8633 53.1495 62.8463 53.2937 62.8717 53.3786C62.9057 53.8028 62.8123 54.2269 62.736 54.6342L62.7105 54.7529C62.7105 54.7614 62.7105 54.7784 62.7105 54.7699C62.7275 54.7529 62.6342 54.702 62.6342 54.719C63.0075 54.3712 63.2365 53.8197 63.3892 53.3277C63.8219 52.0976 63.5928 50.7656 63.6862 49.4507C63.771 48.1357 63.9831 46.8378 64.1103 45.5398C64.3055 43.2662 64.5939 40.9671 64.3903 38.685C64.3564 38.5239 64.3564 38.3966 64.1528 38.3627C60.1146 37.8876 55.9492 38.2185 51.9025 38.5917L51.877 38.6087Z" fill="#3E3E3E"/>
<path d="M51.877 38.6087C44.1739 33.035 36.2418 27.7836 28.2079 22.719C27.0287 21.3446 26.0361 19.5716 24.9163 18.1548C24.543 17.6797 24.1697 17.1622 23.737 16.8229H23.9237C23.2026 17.0859 22.5069 17.3404 21.7434 17.3234C21.5313 17.2131 21.4719 16.9501 21.3447 16.7635C20.7678 15.5164 19.9958 14.2948 19.8685 12.912C20.2333 11.5885 20.6914 10.2821 21.3871 9.09435C21.5992 8.65321 22.0997 8.50899 22.5409 8.43264C24.2969 8.21206 25.2471 10.1124 25.7816 11.4867C26.3245 12.878 25.7052 14.7868 25.2895 16.1866C25.1538 16.6787 24.8908 17.3234 25.1029 17.8579C24.8823 17.3234 25.1029 16.7041 25.2471 16.1612C25.7476 14.4899 26.3924 12.5132 25.4846 10.8674C24.9587 9.6882 24.017 8.246 22.5409 8.45809C22.0997 8.53444 21.6161 8.67018 21.4125 9.11132C20.7423 10.2905 20.2927 11.614 19.9534 12.9289C20.123 14.2269 20.9375 15.4825 21.5398 16.6447C21.6077 16.7296 21.7349 16.9756 21.8197 17.0519C21.8197 17.0604 21.8707 17.0944 21.8197 17.0689C22.4645 16.9926 23.1686 16.738 23.754 16.4751L23.8388 16.4242C24.4666 16.772 24.9502 17.2471 25.4168 17.7137C26.6384 19.0371 28.0467 20.5047 28.9459 22.0657C36.0127 26.7402 44.6236 32.9756 51.877 38.6002V38.6087Z" fill="#3E3E3E"/>
<path d="M22.6936 25.2556C22.6936 25.2556 27.7159 34.8251 28.2164 35.6056Z" fill="#FDFDFE"/>
<path d="M22.6936 25.2556C24.789 28.5812 26.6215 32.0085 28.2164 35.6056C26.1294 32.3055 24.28 28.8357 22.6936 25.2556Z" fill="#3E3E3E"/>
<path d="M22.227 25.1199C22.227 25.1199 21.964 26.1634 22.6172 27.402Z" fill="#FDFDFE"/>
<path d="M22.2864 25.1368C22.0913 25.9088 22.3967 26.7402 22.6342 27.4358C22.1676 26.8505 22.0489 25.8833 22.1592 25.1028C22.1592 25.0689 22.2016 25.0435 22.2355 25.0519C22.2694 25.0519 22.2949 25.0944 22.2864 25.1368Z" fill="#3E3E3E"/>
<path d="M21.6246 25.5017C21.6246 25.5017 22.1761 28.6576 23.4147 30.2101Z" fill="#FDFDFE"/>
<path d="M21.6418 25.5017C22.0236 27.1136 22.5072 28.8103 23.5252 30.1337C23.5761 30.1931 23.5676 30.2864 23.5082 30.3289C23.4488 30.3798 23.3555 30.3628 23.3131 30.3034C22.3629 28.9121 21.837 27.0627 21.6503 25.5017H21.6418Z" fill="#3E3E3E"/>
<path d="M21.5737 29.3616C21.5737 29.3616 24.8654 39.5079 26.0955 41.6203Z" fill="#FDFDFE"/>
<path d="M21.5737 29.3616C23.2365 33.3234 24.509 37.6415 26.0955 41.6203C23.9576 37.8112 22.7105 33.5525 21.5737 29.3616Z" fill="#3E3E3E"/>
<path d="M23.0414 31.2109C23.0414 31.2109 26.1548 35.7666 31.6946 46.897Z" fill="#FDFDFE"/>
<path d="M23.0414 31.2109C26.5112 36.0805 29.2683 41.4421 31.6946 46.897C28.7508 41.6966 26.0361 36.3859 23.0414 31.2109Z" fill="#3E3E3E"/>
<path d="M23.0583 32.3054C23.0583 32.3054 33.3998 57.9512 43.7837 72.9332Z" fill="#FDFDFE"/>
<path d="M23.0583 32.3054C29.2259 46.2015 35.5546 60.1145 43.7837 72.9332C35.0711 60.4199 28.6999 46.4221 23.0583 32.3054Z" fill="#3E3E3E"/>
<path d="M33.7731 43.4443C33.7731 43.4443 59.6055 50.1294 61.5398 51.7243Z" fill="#FDFDFE"/>
<path d="M33.7731 43.4443C38.4899 44.5048 43.1729 45.7349 47.8303 47.0244C52.4284 48.4581 57.2556 49.4931 61.5398 51.7328C57.1283 49.7985 52.3266 48.8399 47.72 47.4316C43.6225 46.2694 37.8028 44.649 33.7731 43.4443Z" fill="#3E3E3E"/>
<path d="M35.5293 43.9026C35.5293 43.9026 61.0054 51.7838 62.6343 53.2175Z" fill="#FDFDFE"/>
<path d="M35.5292 43.9025C40.1443 45.1666 44.7085 46.5918 49.2556 48.0595C53.7434 49.6629 58.4433 50.9184 62.6257 53.2175C58.9184 51.419 53.0648 49.8665 49.1199 48.4582C45.1157 47.1348 39.4486 45.2684 35.5208 43.894L35.5292 43.9025Z" fill="#3E3E3E"/>
<path d="M34.5197 46.6597C34.5197 46.6597 40.6787 53.1241 41.9513 55.3808Z" fill="#FDFDFE"/>
<path d="M34.5197 46.6597C37.3023 49.2641 40.0764 52.0382 41.9513 55.3808C39.6352 52.4115 36.8441 49.6204 34.5197 46.6597Z" fill="#3E3E3E"/>
<path d="M29.1581 49.281C29.1581 49.281 38.3797 70.5917 38.8887 71.8982Z" fill="#FDFDFE"/>
<path d="M29.1581 49.281C32.5515 56.4666 36.0043 64.492 38.8887 71.8982C35.4953 64.7126 32.0425 56.6872 29.1581 49.281Z" fill="#3E3E3E"/>
<path d="M23.1178 41.7729C23.1178 41.7729 23.788 62.7528 24.2376 63.3382C24.6873 63.9235 27.4953 68.4283 30.8463 67.826" fill="#FDFDFE"/>
<path d="M23.1178 41.7729C23.4062 46.0911 23.7032 52.3774 23.9237 56.7634C24.0425 58.4856 24.0849 61.5566 24.3818 63.2194C25.5611 64.9925 26.9778 66.8079 29.0139 67.6308C29.5992 67.8345 30.227 67.9108 30.8463 67.8345C30.227 67.9447 29.5908 67.9023 28.9799 67.7326C26.8845 67.0031 25.0096 65.0434 24.0001 63.1261C23.8644 62.2692 23.8134 61.3954 23.7371 60.5386C23.3299 54.3286 23.1348 47.9914 23.1263 41.7814L23.1178 41.7729Z" fill="#3E3E3E"/>
<path d="M15.7625 68.7509C15.7625 68.7509 22.6002 54.9312 22.4814 51.4275C22.4814 51.4275 22.965 62.6003 24.3733 66.7573" fill="#FDFDFE"/>
<path d="M15.7625 68.7509C17.052 65.9258 18.3075 63.0754 19.4952 60.2079C20.5896 57.3829 21.9894 54.4476 22.2778 51.4359C22.2693 51.1729 22.6766 51.156 22.685 51.4189C23.0159 56.543 23.1262 61.7604 24.3733 66.7572C22.8462 61.8113 22.6257 56.5685 22.2778 51.4359L22.685 51.4189C22.4051 54.6088 20.9714 57.4253 19.8091 60.3436C18.5535 63.1941 17.2047 66.0022 15.7625 68.7509Z" fill="#3E3E3E"/>
<path d="M20.3437 45.3022C20.3437 45.3022 18.121 48.0424 17.4253 54.6596C16.4752 56.7635 15.0414 59.5631 14.6766 60.5811" fill="#FDFDFE"/>
<path d="M20.3437 45.3022C18.6554 48.1442 18.0361 51.4698 17.6204 54.7105C16.7212 56.7042 15.6268 58.6045 14.6766 60.5727C15.262 58.7826 16.4836 56.3224 17.2472 54.5748C17.5186 51.648 18.3415 47.8558 20.3437 45.3022Z" fill="#3E3E3E"/>
<path d="M56.2881 22.2705L15.7123 55.2573L22.5729 63.6964L63.1487 30.7095L56.2881 22.2705Z" fill="white"/>
<path d="M15.3722 55.4827L35.4104 39.2451L42.6638 47.3639L22.685 63.7965L15.3722 55.4827Z" fill="#231815"/>
<path d="M36.1738 38.3118L56.212 22.0742L63.72 30.4814L43.4782 46.6256L36.1738 38.3118Z" fill="#231815"/>
<path d="M57.0265 22.1337C57.0265 22.1337 63.5673 17.7562 65.3658 16.9842C69.6076 15.1602 68.2078 22.6342 67.7667 23.6777C66.2821 27.1899 63.6776 29.4465 63.6776 29.4465L57.0265 22.1422V22.1337Z" fill="#B02F23"/>
<path d="M44.912 35.4274C48.3309 31.8982 52.2757 28.9629 56.2206 26.0615C56.6787 25.7222 56.9077 25.1453 56.6023 24.6108C56.3393 24.1527 55.6182 23.8897 55.1516 24.2291C51.0626 27.2407 46.948 30.2609 43.4104 33.9258C42.4602 34.9099 43.9618 36.4115 44.912 35.4274Z" fill="white"/>
<path d="M40.6023 36.1061C40.3224 36.2164 40.0424 36.3352 39.7879 36.5048C39.5334 36.6745 39.3044 36.8611 39.1008 37.0902C38.999 37.1835 38.9226 37.3023 38.8802 37.4295C38.8123 37.5568 38.7869 37.6925 38.7869 37.8368C38.7869 37.981 38.8123 38.1167 38.8802 38.244C38.9226 38.3712 38.999 38.49 39.1008 38.5833L39.3128 38.753C39.474 38.8463 39.6607 38.8972 39.8473 38.8972L40.1273 38.8633C40.3054 38.8124 40.4666 38.719 40.5939 38.5918C40.7041 38.473 40.8144 38.3627 40.9417 38.2694L40.7296 38.4391C40.9162 38.2949 41.1198 38.1761 41.3319 38.0828L41.0774 38.1931C41.0774 38.1931 41.1283 38.1676 41.1538 38.1591C41.2895 38.1252 41.4083 38.0658 41.5186 37.9725C41.6373 37.8961 41.7222 37.7943 41.79 37.6756C41.8664 37.5568 41.9088 37.4211 41.9173 37.2853C41.9512 37.1411 41.9427 37.0054 41.9003 36.8611L41.79 36.6066C41.6967 36.4455 41.5695 36.3182 41.4083 36.2249L41.1538 36.1146C40.9671 36.0637 40.7805 36.0637 40.5939 36.1146L40.6023 36.1061Z" fill="white"/>
<path d="M19.6055 55.9916C23.211 53.3193 26.7147 50.5112 30.1081 47.5674C30.5408 47.1941 30.4899 46.4561 30.1081 46.0658C29.6755 45.6332 29.0392 45.6925 28.6065 46.0658C25.3573 48.8908 21.9978 51.5971 18.5365 54.1591C18.0784 54.4985 17.8409 55.0754 18.1548 55.6098C18.4178 56.0595 19.1389 56.3309 19.6055 55.9916Z" fill="white"/>
<path d="M33.1708 45.455L35.6225 43.3171C35.8176 43.1475 35.9364 42.8166 35.9364 42.5706C35.9364 42.3245 35.8176 42.0022 35.6225 41.824C35.4274 41.6459 35.1559 41.5016 34.876 41.5101C34.596 41.5186 34.35 41.6289 34.1294 41.824L31.6777 43.9619C31.4825 44.1315 31.3638 44.4624 31.3638 44.7084C31.3638 44.9544 31.4825 45.2768 31.6777 45.455C31.8728 45.6331 32.1443 45.7774 32.4242 45.7689C32.7042 45.7604 32.9502 45.6501 33.1708 45.455Z" fill="white"/>
</g>
<defs>
<linearGradient id="paint0_linear_80_7071" x1="-4.24184" y1="81.858" x2="58.9607" y2="22.0573" gradientUnits="userSpaceOnUse">
<stop stop-color="#CEB1A8"/>
<stop offset="1" stop-color="#E4D4CE"/>
</linearGradient>
<clipPath id="clip0_80_7071">
<rect width="80" height="80" fill="white"/>
</clipPath>
</defs>
</svg>
