<svg width="262" height="193" viewBox="0 0 262 193" fill="none" xmlns="http://www.w3.org/2000/svg">
<g clip-path="url(#clip0_80_7018)">
<path d="M72.411 131.759L12.4423 180.406L22.5836 192.853L82.5524 144.206L72.411 131.759Z" fill="white"/>
<path d="M3.92912 46.6641C4.00771 46.3112 3.77196 45.9976 3.92912 45.4879C4.24345 44.4294 5.3829 41.1753 5.69723 40.0775L5.54006 39.5678C6.40447 36.549 6.75809 36.6666 7.66178 33.9222C6.75809 34.0006 6.48305 34.0398 5.89368 34.2358C4.00771 34.7847 6.05085 35.0199 3.65409 34.6671C3.49692 34.3142 3.18259 34.3142 3.18259 33.6477C6.05085 32.4716 5.10786 33.0989 8.40832 32.2363C8.56548 32.0795 8.64406 31.4914 8.76194 31.3346C8.76194 31.217 8.76194 31.0601 8.80123 30.9033C8.80123 30.7857 9.15485 30.4328 9.31201 30.276C9.50847 29.4527 11.2766 24.9048 12.0231 23.9639C12.416 23.5326 12.3374 22.7093 12.6125 22.1604C12.9661 21.5331 13.7519 20.5138 14.1841 19.7296C14.2627 19.612 14.1841 19.1808 14.302 18.8671C15.2843 17.4165 15.8343 15.3386 16.738 14.28C16.9345 14.0056 17.0131 13.7311 17.131 13.4175C17.406 13.0646 20.1564 10.6339 20.51 10.5555C20.785 10.4771 21.6101 10.8299 22.0816 10.6731C22.4746 10.5163 22.671 10.3594 23.1818 10.4378C23.5354 12.4373 25.6964 12.5942 26.1286 14.5153C26.4037 15.613 26.7573 18.1222 26.1679 19.2984C25.2249 21.8076 24.2819 24.3951 23.1425 26.6691C23.1032 27.1788 22.9068 27.6884 22.8282 28.1981C22.4746 28.8646 22.2388 29.4135 21.8066 30.1192C21.5709 30.6289 21.5709 31.609 21.3351 31.9619C21.2172 32.0011 21.0601 32.0403 21.0208 32.0795C21.0208 32.0795 21.1387 32.4716 21.0601 32.6676C19.842 34.9807 17.6024 41.1753 18.624 43.9197C18.8991 44.0765 19.292 44.6646 19.567 44.5078C19.6849 44.5862 19.6456 44.8606 19.7242 44.8998C19.7635 44.939 21.5709 44.547 21.7673 44.5078C21.9638 44.7822 22.0031 44.8606 22.1995 44.9782C20.2742 45.9584 20.3135 46.272 18.8205 46.4289C18.2704 46.2328 17.0524 46.6249 17.0524 46.6249C15.8736 46.1152 15.0878 45.7624 15.0485 43.9197C15.0092 43.6844 15.0485 43.41 14.9699 43.1748L16.8559 37.2155C18.8991 31.3346 21.1387 26.0026 23.3782 19.9649C23.889 18.7103 24.6749 13.2215 23.1818 12.5158C22.6317 12.4373 21.3744 13.5351 19.2527 14.7505C19.292 14.7897 18.7026 15.4562 18.7026 15.4562C18.1525 16.1227 18.3097 16.3187 17.7989 17.0636C16.5416 18.6711 15.4414 21.1411 14.4592 23.3366C13.9877 24.6304 14.027 23.8463 13.4769 25.1793C13.5162 26.0418 12.416 28.551 12.2588 28.7862C11.8266 29.4919 11.2766 30.3936 11.0408 31.609C11.1194 31.609 11.5909 31.2562 11.6695 31.2562C12.0624 31.6874 12.3767 31.3346 13.2018 31.1778C14.7735 31.0601 15.0878 30.3544 17.131 30.3152C17.1702 30.6289 17.3274 30.7465 17.406 31.0601C16.8559 31.4522 16.5023 32.0403 15.8343 32.2755C14.4984 32.2755 15.52 32.2363 14.1055 32.3539C11.2373 32.8244 13.0447 32.9028 10.3729 33.0204C8.9191 35.608 8.64406 39.2934 7.30816 41.5281C7.30816 41.5281 7.34745 43.0964 7.30816 43.1356C6.91525 44.4686 6.16872 46.0368 6.12943 47.4874C5.8151 47.4874 6.05085 47.4482 5.77581 47.4874C5.93297 48.2715 5.61864 49.4477 5.14715 50.1534C5.3829 50.8983 3.92912 54.7405 3.53621 55.603C3.45763 55.9167 3.18259 56.1519 3.30046 56.4656C3.06472 56.74 2.7111 57.0929 2.63252 57.4065C2.51464 57.7594 2.04315 58.3474 1.96457 58.8179C1.84669 59.0923 -0.314322 60.3861 0.0392986 59.2492C0.903704 55.5638 2.51464 49.9182 3.92912 46.6641Z" fill="#231815"/>
<path d="M23.614 45.88C23.4176 45.3703 23.2604 45.2135 23.1818 44.2725C23.2604 44.1549 23.064 43.606 23.2997 43.2924C23.6926 42.469 24.2034 38.1564 27.5824 35.0983C27.3074 34.8631 26.9538 35.216 26.3644 35.1375C26.443 34.7455 26.3644 34.5495 26.5216 34.275C29.1148 33.1773 30.4114 30.7857 33.9083 32.9812C34.537 33.4125 35.0478 34.1182 35.2049 35.1375C35.4407 35.5688 35.2835 35.6472 35.3228 36.2353C35.0871 36.3921 33.7119 39.215 33.4368 39.4502C33.0046 39.9207 30.2935 43.9589 29.7435 44.3117C28.4468 45.2527 27.4253 45.6839 26.0894 46.1152C25.1464 46.3896 24.4784 45.88 23.614 45.88ZM32.8868 35.0199L32.7689 34.9023C31.7473 34.1574 32.1402 34.079 30.6079 34.079C30.1757 34.3926 29.2327 34.7455 29.0362 35.0591C24.7142 39.215 25.8143 41.9594 25.7751 43.2924C26.0501 43.41 26.2858 43.6452 26.6395 43.8413C29.1148 43.9197 32.1795 41.4497 32.8868 35.0199Z" fill="#231815"/>
<path d="M39.5663 31.6091C39.9985 31.217 40.077 31.6483 40.5092 31.2954C41.02 31.021 41.2165 30.7857 41.7273 30.5113C41.9237 30.5505 42.3952 30.1976 42.8274 30.2761C42.906 30.5897 42.4345 31.5699 42.3559 32.0795C41.9237 32.55 41.4129 34.9416 41.1379 35.5689C40.7057 36.6666 40.9414 35.9609 40.6664 37.0979C40.5485 37.1371 40.5485 37.4507 40.5485 37.4899C42.1988 36.0393 42.7881 33.4517 45.2635 31.7659C46.4029 30.7857 47.896 30.4721 48.2496 30.5505C49.1533 30.7465 49.9391 30.5897 50.0963 31.4522C50.1487 31.5306 50.188 31.6483 50.2142 31.8051C50.2142 32.3148 49.7034 33.2949 48.9961 33.4909C48.5246 33.8046 48.171 34.0006 47.5817 34.0006C47.4638 33.4125 47.6209 32.5892 46.7958 32.55C46.5994 32.4324 45.6957 32.7852 44.9099 33.3733C44.5955 33.4125 43.2989 35.02 42.4738 36.3922C41.3736 37.6076 41.6487 37.6076 40.47 39.0582C39.802 39.8815 38.1125 44.4294 37.3267 44.8999H36.7373C35.9908 45.2135 34.6156 47.0954 34.537 45.2135C36.1086 42.9396 39.1341 34.2359 39.5663 31.6091Z" fill="#231815"/>
<path d="M47.7388 45.88C48.0531 45.5663 47.7781 44.5862 47.8959 44.3901C48.2496 43.5276 48.6032 43.0963 48.8389 42.3514C48.9568 42.0378 48.6032 42.1554 48.7603 41.7634L49.0354 41.5673C49.2318 41.1753 50.1748 37.7251 50.4106 37.3723C50.5284 37.0978 51.0392 36.4313 51.1571 36.1961C51.3928 35.8433 51.6679 34.2358 51.9822 33.7653C52.0215 33.7261 52.8859 32.55 53.0431 32.4716C53.7503 32.0795 53.6324 32.3539 54.1825 31.8443C54.6933 31.8835 54.8505 31.8443 54.654 32.6284C54.0254 33.1381 53.5539 34.5887 53.436 35.216C53.711 35.3728 53.5146 36.3921 53.5146 36.8234C53.711 37.2547 53.1217 37.2939 53.0824 37.8036C53.0431 38.6269 50.5677 44.1941 49.664 45.1351C49.4545 45.318 49.2056 45.4748 48.9175 45.6055C48.5639 45.7624 48.171 46.4288 47.9745 46.272C47.7781 46.1152 47.7781 46.1152 47.7388 45.88ZM52.5716 27.1788C52.6895 27.1003 52.8073 26.9043 52.8859 26.7867C53.1217 26.7083 53.8682 26.5123 54.0254 26.3946C54.2218 26.277 54.379 25.9242 54.5754 25.8066C55.2827 25.4929 55.872 25.4537 56.4614 25.0224C57.4044 24.9832 58.1509 25.2577 58.0331 26.0026C57.8759 26.081 57.4437 26.9827 57.1294 27.0219C56.9722 26.9043 55.7935 27.0219 55.5184 27.218C54.9683 27.6492 54.8898 28.1981 53.9861 28.2765C53.7896 28.4333 52.9252 27.414 52.5716 27.1788Z" fill="#231815"/>
<path d="M58.3474 48.0755C58.1116 47.8795 58.3081 47.2914 58.426 46.8209C58.7403 45.8016 58.5831 45.88 58.976 44.8606C58.8975 44.7038 59.0546 44.6254 59.0546 44.3509C59.0546 43.9981 59.7619 43.3316 59.7226 42.7827L59.2511 41.9986C59.5261 41.2929 59.7226 40.3127 59.9976 39.607C60.4691 38.0388 60.4691 37.4899 61.3728 35.8433L61.4514 34.9415C62.0801 33.8046 61.8443 33.4909 62.3944 32.0795L62.1979 31.8051C61.2156 31.8835 60.5084 31.7659 59.4083 32.0011C57.9152 32.3147 59.0939 32.1971 57.2865 32.1187C57.2472 31.8835 57.5223 31.7659 57.6009 31.413C58.5046 31.2562 59.0939 31.1778 61.0585 30.6289C61.6086 30.4721 62.2765 30.3152 63.1802 30.1584L64.2018 27.8061L64.1625 27.61C64.1232 27.414 64.5554 26.2378 64.7911 25.8458C65.6163 24.2383 65.577 23.9247 66.2449 22.1604C67.07 21.7291 68.013 21.1803 69.5061 20.9058C69.624 21.1411 69.6632 21.2195 69.5454 21.6899C69.1132 22.5133 68.1702 24.3559 67.7773 25.2577C67.1879 26.2378 67.6594 26.5123 67.0307 27.61L66.0878 30.0016C67.9344 30.1192 72.1779 28.4334 73.946 28.4726C73.946 28.6294 72.728 29.5703 72.7673 29.7664C72.6887 29.8186 72.6101 29.897 72.5315 30.0016C71.6278 30.2368 70.8813 30.7465 69.899 30.9425C69.5061 30.9425 69.6632 30.7073 69.3096 30.7073C68.4452 30.5113 66.3235 31.0994 65.4591 31.3346C64.0053 33.2165 63.0623 37.4115 60.9406 41.8026C59.8012 44.1549 59.9583 46.076 58.5438 48.1931L58.3474 48.0755Z" fill="#231815"/>
<path d="M75.3604 45.4879H74.8103C74.5746 45.4095 74.6139 44.8606 74.5353 44.6646C74.2602 43.9197 75.0068 41.6065 74.5746 40.6264C73.3565 41.6849 67.2664 44.6254 65.7733 45.0958C65.0268 45.3703 64.7125 45.8408 64.241 45.4879C63.9267 45.4095 64.0052 44.9782 63.9267 44.6646C63.9267 44.3901 63.8874 43.8805 64.5946 43.4492C64.5553 43.1748 65.2626 42.3906 65.6162 42.077C66.2841 41.4889 67.6593 39.411 68.3666 38.8621C68.7202 38.6269 68.9559 38.1564 69.3488 37.882C70.2132 37.3331 70.6062 36.7842 71.392 36.1569C71.9421 35.6864 73.4351 34.5495 74.0638 34.1182C74.6531 33.6869 75.7533 33.4517 76.7356 32.9812C76.8535 32.5892 77.0499 32.1579 77.0499 32.1579C77.0499 32.1579 77.2071 31.8442 77.4428 31.805C78.3858 31.6482 77.7964 31.7658 78.5037 31.5306C78.543 31.5306 79.2502 31.2954 79.2502 31.2562C79.2895 31.217 80.0753 31.0601 80.1146 31.1778C80.1932 31.2954 79.8003 31.8835 79.7217 32.1187C79.6824 32.1579 79.486 32.4715 79.486 32.5108C79.9575 32.4715 80.5075 32.3539 80.5468 32.3539C80.704 32.3539 80.4289 32.8636 80.1932 32.9028C80.1539 32.9028 79.5253 33.4125 79.5253 33.4125L79.0538 33.6085C78.9752 33.8045 78.9359 34.0006 78.9359 34.0006C78.9359 34.0398 78.1108 36.4313 77.9536 36.8626C77.7179 38.3132 77.6 38.4308 77.4428 40.1951C77.2464 41.7633 77.6393 44.939 77.2464 45.9976C76.9713 46.076 76.6963 46.1152 76.4605 46.1936C75.8319 46.468 75.5961 45.7231 75.3604 45.4879ZM71.4706 41.6849C71.9813 41.3713 72.4921 41.1753 73.0029 40.8616C73.6316 40.4695 74.4174 39.9207 74.8103 39.1365C75.0461 37.6467 75.6354 35.2944 76.1462 34.2358L75.439 34.5887C75.2818 34.6279 73.7102 35.6472 73.3565 35.8433C72.0599 36.6274 71.5491 37.3331 70.5669 38.078C70.174 38.3916 69.8989 38.9013 69.506 39.1758C68.6023 39.7638 67.8951 41.8417 67.5022 42.9003C67.5807 44.0373 69.1131 43.0963 71.4706 41.6849Z" fill="#231815"/>
<path d="M103.29 10C103.755 11.5356 103.539 13.1757 103.388 14.7439C102.812 19.4944 101.685 24.1533 100.539 28.7862C98.1689 38.0518 95.3923 47.2064 92.2687 56.2499C91.0572 59.6281 89.8785 63.0586 88.2872 66.3258C86.0279 69.9327 85.3076 74.2911 85.6285 78.4992C85.7398 80.0152 85.9887 81.5703 86.4863 82.8837L86.5518 83.2366C86.5518 83.9227 87.5734 84.5565 88.2282 84.9094C91.2537 86.4384 94.7244 87.033 98.0903 87.5819C102.078 88.1504 106.158 88.5163 110.179 88.2027C110.847 88.1243 111.489 88.072 112.006 87.7714C112.078 87.7257 112.183 87.6995 112.268 87.6865C113.741 87.6146 112.831 90.3721 112.733 91.1889C111.469 96.8606 109.845 102.48 108.954 108.211C108.751 110.073 108.352 112.046 108.869 113.85C108.941 114.026 109.033 114.118 109.026 114.092L108.509 112.059L109.406 114.699C111.135 120.966 117.441 120.907 122.837 121.306C123.826 121.39 124.795 121.443 125.908 121.717C126.655 121.933 127.434 122.233 127.749 123.181C127.978 124.135 127.585 124.697 127.192 125.357C126.897 125.814 126.295 125.945 125.836 125.651C125.378 125.357 125.247 124.756 125.542 124.298C125.64 124.128 125.778 123.939 125.817 123.815C125.869 123.691 125.85 123.638 125.869 123.736C125.902 123.834 125.954 123.841 125.856 123.782C124.933 123.383 123.819 123.377 122.7 123.266C120.774 123.122 118.797 122.991 116.826 122.71C112.556 122.318 108.437 119.397 107.487 115.059L107.861 115.666C107.389 115.281 107.206 114.83 107.088 114.458C106.577 112.288 107.121 110.073 107.501 107.962C107.952 105.643 108.529 103.375 109.125 101.114C109.721 98.7164 111.273 93.3125 111.737 90.9798C111.901 90.2152 112.117 89.209 112.078 88.5294C112.078 88.5294 112.137 88.6274 112.196 88.6405C112.307 88.7123 112.419 88.6927 112.471 88.6731C111.783 89.0717 110.984 89.1305 110.29 89.222C108.516 89.3984 106.741 89.3723 104.966 89.3266C99.9959 89.0979 85.3862 88.2615 84.6593 83.5894C83.0287 78.1072 83.533 71.6055 86.3816 66.6329C88.3658 63.2416 89.6689 59.504 91.1227 55.8382C94.469 46.9123 97.4682 37.8427 100.075 28.6685C101.338 24.0749 102.583 19.4552 103.277 14.7374C103.467 13.1691 103.729 11.5486 103.296 10.0065L103.29 10Z" fill="#231815"/>
<path d="M127.172 125.376C124.808 128.918 119.74 136.772 123.256 140.628C125.306 143.254 128.554 145.025 131.848 145.417C132.464 145.483 133.059 145.496 133.642 145.404L133.898 145.365C134.297 145.267 134.972 145.594 135.122 145.986C135.299 146.332 135.306 146.554 135.332 146.763C135.365 148.266 134.926 149.658 134.638 150.997C132.431 160.087 129.694 169.666 131.979 178.958C132.588 181.147 133.38 183.284 135.26 184.734C142.64 190.308 153.399 191.125 162.397 190.72C186.482 189.223 208.433 176.481 225.931 160.498C240.089 147.554 251.876 132.198 262.007 115.934C252.013 132.283 240.351 147.75 226.265 160.858C208.78 177.109 186.744 190.112 162.469 191.817C153.163 192.314 142.116 191.536 134.402 185.767C132.372 184.251 131.272 181.728 130.617 179.324C128.161 169.764 130.84 159.917 133.02 150.612C133.295 149.344 133.688 147.848 133.636 146.802C133.655 146.842 133.727 146.94 133.852 146.998C133.976 147.057 134.081 147.051 134.114 147.051C133.387 147.201 132.437 147.208 131.678 147.129C127.192 146.593 122.935 144.058 120.735 140.059C119.877 138.19 120.159 136.001 120.65 134.145C121.672 130.539 123.492 127.311 125.588 124.226C125.895 123.782 126.504 123.671 126.956 123.978C127.415 124.292 127.519 124.932 127.185 125.376H127.172Z" fill="#231815"/>
<path d="M112.098 87.7845C113.27 87.6865 114.514 87.4251 115.437 86.6345C115.097 87.1572 114.579 87.5689 114.036 87.9021C113.473 88.2419 112.903 88.5033 112.268 88.7124C112.019 88.7908 111.751 88.6536 111.672 88.4053C111.574 88.1112 111.796 87.7976 112.098 87.7845Z" fill="#231815"/>
<path d="M108.437 109.491C109.138 106.937 119.399 115.568 122.844 117.542C124.121 118.274 138.685 126.167 146.176 128.18C153.668 130.192 148.193 133.355 146.176 134.505C144.159 135.655 131.278 145.143 129.222 144.568C127.166 143.993 121.534 140.804 121.534 137.354C121.534 133.904 121.698 129.284 126.878 125.592C126.878 125.592 126.531 122.959 123.937 122.384C121.344 121.809 116.636 122.717 111.737 119.809C106.852 116.908 106.708 115.823 108.437 109.498V109.491Z" fill="#B02F23" stroke="#B02F23" stroke-width="5" stroke-miterlimit="10"/>
<path d="M126.491 123.54C131.075 125.579 145.823 132.264 149.824 128.461C150.001 128.232 150.361 128.519 150.171 128.742C146.811 132.466 135.928 128.755 131.665 127.487C129.654 126.827 127.677 126.121 125.692 125.331C125.188 125.128 124.946 124.56 125.142 124.056C125.352 123.527 125.974 123.285 126.485 123.54H126.491Z" fill="#231815"/>
<path d="M11.938 180.735L41.5504 156.787L52.2769 168.764L22.7431 193L11.938 180.735Z" fill="#231815"/>
<path d="M42.6768 155.415L72.2892 131.466L83.3955 143.868L53.4818 167.68L42.6768 155.415Z" fill="#231815"/>
<path d="M73.5073 131.564C73.5073 131.564 83.173 125.102 85.8317 123.965C92.0986 121.279 90.0358 132.296 89.381 133.838C87.1937 139.013 83.3367 142.339 83.3367 142.339L73.5073 131.564Z" fill="#B02F23"/>
<path d="M55.6494 151.213C60.6918 146.005 66.5199 141.693 72.3547 137.413C73.0685 136.89 73.4221 135.995 72.9441 135.178C72.5315 134.479 71.4182 134.067 70.7045 134.59C64.6536 139.027 58.57 143.496 53.3378 148.9C51.8709 150.409 54.1825 152.722 55.6559 151.213H55.6494Z" fill="white"/>
<path d="M49.2056 152.095C48.7799 152.259 48.3608 152.435 47.9876 152.69C47.6143 152.945 47.2541 153.226 46.9594 153.559C46.8023 153.709 46.6844 153.879 46.6189 154.082C46.5141 154.278 46.4683 154.487 46.4749 154.709C46.4683 154.931 46.5141 155.147 46.6189 155.336C46.6844 155.539 46.7957 155.715 46.9594 155.859L47.2934 156.114C47.5488 156.264 47.8239 156.336 48.1185 156.336L48.5507 156.277C48.8258 156.199 49.0681 156.062 49.2711 155.859C49.4282 155.683 49.5985 155.526 49.7884 155.375L49.4544 155.63C49.7295 155.421 50.0242 155.245 50.345 155.108L49.9521 155.271C49.9914 155.258 50.0307 155.238 50.07 155.225C50.2861 155.173 50.4695 155.075 50.6266 154.931C50.8034 154.813 50.9475 154.663 51.0457 154.474C51.1636 154.284 51.2291 154.082 51.2422 153.866C51.288 153.65 51.2815 153.435 51.216 153.213L51.0523 152.821C50.9082 152.572 50.7117 152.383 50.4629 152.232L50.07 152.069C49.7819 151.991 49.4872 151.991 49.199 152.069L49.2056 152.095Z" fill="white"/>
<path d="M18.2377 181.545C23.5747 177.605 28.7611 173.456 33.7708 169.111C34.4387 168.529 34.3667 167.392 33.7708 166.797C33.1094 166.137 32.1271 166.216 31.4526 166.797C26.6525 170.96 21.6953 174.939 16.5809 178.716C15.8736 179.239 15.5135 180.134 15.9915 180.951C16.3975 181.65 17.5173 182.068 18.2311 181.539L18.2377 181.545Z" fill="white"/>
<path d="M38.2957 165.994C39.5072 164.942 40.7121 163.89 41.9236 162.844C42.2248 162.583 42.4017 162.08 42.4017 161.688C42.4017 161.296 42.2248 160.805 41.9236 160.531C41.6224 160.257 41.2033 160.034 40.7645 160.054C40.3258 160.074 39.946 160.237 39.6054 160.531C38.394 161.583 37.189 162.635 35.9776 163.681C35.6763 163.942 35.4995 164.445 35.4995 164.837C35.4995 165.229 35.6763 165.719 35.9776 165.994C36.2788 166.268 36.6979 166.49 37.1366 166.471C37.5754 166.451 37.9552 166.288 38.2957 165.994Z" fill="white"/>
</g>
<path d="M35.22 7.31H39.02C39.42 7.31 39.81 7.29 39.85 7.29C40.06 7.29 40.3 7.61 40.3 7.67C40.3 7.79 40.22 7.8 40.15 8.27C39.88 10.17 39.06 11.58 37.46 12.66C36.9 13.04 36.31 13.34 35.68 13.6C35.59 13.64 35.47 13.69 35.37 13.69C35.18 13.69 35.04 13.42 35.04 13.31C35.04 13.21 35.12 13.17 35.21 13.15C36.56 12.71 37.95 11.85 38.73 10.64C39.18 9.93 39.48 9.08 39.55 8.24C39.56 8.19 39.56 8.12 39.56 8.07C39.56 7.82 39.33 7.85 39.03 7.85H35.22C34.82 7.85 34.42 7.88 34.02 7.88C33.81 7.88 33.8 7.75 33.8 7.58C33.8 7.39 33.82 7.29 34.02 7.29C34.42 7.29 34.82 7.31 35.22 7.31ZM49.32 8.05H44.68C44.53 8.05 44.4 8.17 44.4 8.33V11.93C44.4 12.09 44.53 12.21 44.68 12.21H49.32C49.48 12.21 49.6 12.09 49.6 11.93V8.33C49.6 8.17 49.49 8.05 49.32 8.05ZM45.11 7.5H48.89C49.14 7.5 49.38 7.49 49.62 7.49C50.09 7.49 50.19 7.6 50.19 7.98C50.19 8.24 50.18 8.49 50.18 8.75V12.14C50.18 12.49 50.2 12.83 50.2 13.17C50.2 13.39 50.14 13.44 49.84 13.44C49.54 13.44 49.57 13.33 49.57 13.06C49.57 12.76 49.42 12.76 49.14 12.76H44.86C44.58 12.76 44.43 12.76 44.43 13.06C44.43 13.33 44.46 13.44 44.16 13.44C43.86 13.44 43.8 13.39 43.8 13.17C43.8 12.83 43.82 12.49 43.82 12.14V8.75C43.82 8.5 43.81 8.25 43.81 7.99C43.81 7.61 43.89 7.49 44.37 7.49C44.62 7.49 44.87 7.5 45.11 7.5ZM59.27 7.33V9.57C59.27 9.96 59.26 10.35 59.24 10.75C59.18 11.73 59.01 12.63 58.31 13.36C57.96 13.72 57.05 14.37 56.86 14.37C56.76 14.37 56.4 14.14 56.4 14.02C56.4 13.93 56.59 13.85 56.66 13.82C57.77 13.27 58.39 12.66 58.58 11.4C58.67 10.8 58.69 10.2 58.69 9.6V7.3C58.69 7.08 58.69 6.9 58.65 6.67C58.65 6.64 58.64 6.58 58.64 6.55C58.64 6.47 58.7 6.45 58.77 6.45C58.85 6.45 59.13 6.49 59.22 6.51C59.3 6.52 59.43 6.53 59.43 6.64C59.43 6.69 59.39 6.73 59.35 6.77C59.27 6.85 59.27 7.21 59.27 7.33ZM55.21 7.77V9.51C55.21 9.75 55.26 11.19 55.22 11.29C55.18 11.4 55.03 11.43 54.93 11.43C54.65 11.43 54.61 11.31 54.61 11.11C54.61 10.58 54.63 10.04 54.63 9.51V8.24C54.63 7.8 54.65 7.32 54.59 6.93C54.58 6.89 54.57 6.82 54.57 6.78C54.57 6.72 54.61 6.68 54.68 6.68C54.77 6.68 55.13 6.76 55.23 6.79C55.29 6.81 55.36 6.84 55.36 6.92C55.36 6.98 55.32 7 55.29 7.04C55.19 7.15 55.21 7.61 55.21 7.77ZM64.71 9.74H69.29C69.68 9.74 70.07 9.72 70.46 9.72C70.69 9.72 70.71 9.79 70.71 10.04C70.71 10.22 70.7 10.34 70.5 10.34C70.09 10.34 69.69 10.32 69.29 10.32H64.71C64.31 10.32 63.91 10.34 63.51 10.34C63.3 10.34 63.29 10.23 63.29 10.04C63.29 9.79 63.31 9.72 63.54 9.72C63.91 9.72 64.32 9.74 64.71 9.74ZM76.74 7.65H78.77C78.99 7.65 79.44 7.66 79.64 7.61C79.67 7.6 79.72 7.59 79.76 7.59C79.88 7.59 80.14 8.01 80.14 8.11C80.14 8.17 80.09 8.23 80.06 8.28C79.91 8.49 79.88 8.54 79.78 8.78C79.52 9.37 79.12 10.13 78.78 10.67C78.73 10.74 78.7 10.79 78.7 10.88C78.7 10.98 78.74 11.04 78.82 11.1C79.13 11.32 79.49 11.56 79.49 11.7C79.49 11.81 79.31 12.11 79.18 12.11C79.12 12.11 79.08 12.07 79.03 12.03C78.87 11.9 78.7 11.78 78.54 11.66C78.46 11.6 78.41 11.55 78.31 11.55C78.15 11.55 78.08 11.66 77.98 11.78C77.35 12.52 76.57 13.11 75.73 13.58C75.54 13.68 74.68 14.13 74.52 14.13C74.37 14.13 74.1 13.85 74.1 13.7C74.1 13.6 74.24 13.57 74.44 13.5C75.61 13.1 76.72 12.4 77.52 11.47C77.59 11.39 77.66 11.3 77.66 11.19C77.66 11.07 77.59 10.99 77.49 10.93C77.1 10.69 76.64 10.42 76.22 10.23C76.17 10.2 76.05 10.15 76.05 10.08C76.05 9.96 76.23 9.68 76.37 9.68C76.54 9.68 77.55 10.27 77.76 10.39C77.84 10.44 77.96 10.52 78.06 10.52C78.25 10.52 78.31 10.37 78.4 10.22C78.57 9.95 79.24 8.64 79.24 8.4C79.24 8.16 78.94 8.19 78.78 8.19H76.23C76.07 8.19 76 8.32 75.91 8.44C75.64 8.84 74.85 9.84 74.52 10.14C74.45 10.19 74.4 10.23 74.31 10.23C74.17 10.23 73.87 10.07 73.87 9.93C73.87 9.87 73.94 9.81 73.98 9.78C74.96 8.92 76.06 7.47 76.5 6.24C76.52 6.18 76.57 6 76.66 6C76.73 6 77.1 6.24 77.19 6.3C77.26 6.34 77.3 6.36 77.3 6.43C77.3 6.51 77.16 6.57 77.1 6.59C77.03 6.62 76.99 6.73 76.94 6.82C76.84 7.01 76.73 7.19 76.62 7.38C76.59 7.42 76.58 7.46 76.58 7.51C76.58 7.6 76.65 7.65 76.74 7.65Z" fill="black"/>
<defs>
<clipPath id="clip0_80_7018">
<rect width="262" height="183" fill="white" transform="translate(0 10)"/>
</clipPath>
</defs>
</svg>
