<svg width="390" height="282" viewBox="0 0 390 282" fill="none" xmlns="http://www.w3.org/2000/svg">
<path d="M-18.932 132.148C-15.0134 129.183 -10.3349 127.443 -6.3697 124.278C-2.93477 121.535 0.888459 118.548 4.84705 116.563C9.31628 114.321 12.7794 110.019 17.2388 107.759C26.2599 103.186 34.6261 96.0007 42.9483 90.1862C46.5219 87.6894 50.1944 84.0255 53.9749 82.0517C60.0618 78.8738 67.8417 71.4489 75.2353 71.7298C84.0458 72.0646 93.3211 75.9976 100.842 79.9165C107.642 83.4597 115.246 85.6711 121.811 89.4727C125.255 91.4673 128.919 91.3917 132.862 91.5415C137.9 91.7329 144.072 93.0192 149.071 92.1059C151.903 91.5885 154.522 88.3565 157.236 87.418C161.547 85.9273 166.09 84.9263 170.473 83.4897C177.19 81.2881 182.746 78.0902 188.827 75.0669C192.594 73.1942 197.448 72.4775 200.958 70.4267C201.913 69.869 209.595 68.4791 209.759 67.9787C212.004 61.1195 218.543 63.1606 225.027 62.118C232.092 60.9822 238.773 56.6389 245.377 54.0802C253.296 51.0118 260.478 46.0411 266.718 40.2576C275.755 31.8824 283.887 32.3565 295.033 32.78C299.302 32.9423 301.992 36.2815 305.543 38.229C309.634 40.4726 309.88 41.8282 312.342 45.0827C315.635 49.4343 319.713 53.0891 323.428 57.0974C326.497 60.4094 328.335 64.5005 331.326 67.5482C337.397 73.7339 343.814 74.515 352.381 74.8406C355.794 74.9702 359.207 75.0999 362.62 75.2296C365.87 75.3531 370.468 76.8618 366.344 73.5161" stroke="#CDB5AB" stroke-opacity="0.8" stroke-width="60" stroke-linecap="round" stroke-dasharray="80 80"/>
<path d="M-6.99023 186.581C5.86922 175.753 20.6393 167.334 32.2405 154.889C36.3021 150.532 41.3138 147.175 45.6717 143.136C48.8671 140.174 51.8283 136.17 55.8015 134.194C62.4034 130.912 63.7046 124.344 71.8796 124.655C75.0869 124.777 77.4043 125.576 80.4095 126.628C82.2899 127.285 84.3213 129.559 86.0588 129.831C90.8259 130.576 96.253 133.25 100.915 134.827C105.375 136.335 110.631 134.358 115.09 136.035C119.03 137.517 124.253 136.847 128.45 137.006C145.348 137.648 158.77 124.383 171.94 115.266C175.322 112.924 178.361 110.087 181.902 108.018C183.63 107.009 186.608 107.463 188.525 107.291C193.32 106.861 197.971 106.404 202.711 105.511C206.223 104.85 211.716 104.203 213.761 100.83C215.681 97.6643 215.489 98.6535 218.57 97.6637C222.651 96.3531 227.702 92.1232 231.343 89.6986C236.123 86.5151 241.41 84.4967 246.862 82.6624C255.279 79.8304 260.83 81.8609 269.355 84.6506C278.461 87.6308 287.752 85.2041 297.166 84.986C309.406 84.7023 320.569 84.4383 332.373 88.6939C339.313 91.1963 344.55 96.0611 352.228 96.3529C354.161 96.4263 370.434 98.4249 366.657 92.2637" stroke="#CDB5AB" stroke-opacity="0.8" stroke-width="60" stroke-linecap="round" stroke-dasharray="80 80"/>
<path d="M228.616 66.247C227.155 66.0076 238.309 57.1578 239.67 56.0525C243.613 52.8484 250.595 46.1413 256.078 45.9584C262.33 45.75 269.401 43.824 275.675 42.7871C289.705 40.4684 302.774 41.599 315.557 48.2184" stroke="#CDB5AB" stroke-opacity="0.8" stroke-width="60" stroke-linecap="round" stroke-dasharray="80 80"/>
<path d="M154.453 138.555C160.316 138.777 165.503 136.192 171.229 136.41" stroke="#CDB5AB" stroke-opacity="0.8" stroke-width="60" stroke-linecap="round" stroke-dasharray="80 80"/>
<path d="M28.6982 104.097C48.0532 104.833 64.5409 101.982 82.2384 110.769" stroke="#CDB5AB" stroke-opacity="0.8" stroke-width="60" stroke-linecap="round" stroke-dasharray="80 80"/>
<path d="M-24.1984 235.29C-23.3243 232.733 -19.387 229.95 -17.6428 227.773C-14.121 223.378 -10.0745 218.849 -6.21865 214.747C1.79845 206.219 10.8395 199.031 20.6766 192.703C29.0445 187.319 37.6026 182.549 45.8383 176.92C51.4218 173.103 57.1157 169.887 63.2928 167.171C77.646 160.862 96.5829 165.606 111.091 168.757C128.316 172.499 145.92 171.373 160.843 161.329C170.801 154.626 180.604 146.805 189.653 138.84C192.62 136.228 195.95 134.112 198.791 131.479C200.435 129.955 203.322 130.273 204.56 128.017" stroke="#CDB5AB" stroke-opacity="0.8" stroke-width="60" stroke-linecap="round" stroke-dasharray="80 80"/>
<path d="M327.321 82.4684C328.598 82.6452 330.115 84.2831 331.117 84.9962C333.579 86.7473 335.874 88.7739 338.151 90.7568C341.444 93.6237 344.5 96.6923 348.14 99.1435C349.225 99.8746 350.724 100.452 352.045 100.502C353.042 100.54 355.215 100.678 355.915 101.562C356.883 102.782 359.346 102.12 360.678 102.171C361.451 102.2 361.377 102.814 361.386 103.371C361.394 103.821 362.897 105.001 362.03 104.066" stroke="#CDB5AB" stroke-opacity="0.8" stroke-width="60" stroke-linecap="round" stroke-dasharray="80 80"/>
<path d="M-20.8686 104.101C2.53911 80.6392 59.9101 37.7199 102.132 53.7346C154.91 73.753 157.832 75.8654 178.697 66.651C195.389 59.2795 232.476 34.0027 248.932 22.2858C263.745 14.3424 297.672 3.72299 314.885 24.7917C336.4 51.1276 358.024 61.4561 371.109 59.4515" stroke="black"/>
<path d="M-27.5732 265.903C-8.04125 235.673 43.1414 177.069 91.6162 184.491C152.21 193.768 155.792 195.348 175.858 180.826C191.911 169.208 225.558 133.945 240.374 117.766C254.301 105.967 287.92 86.9871 310.983 105.454C339.811 128.537 365.119 134.597 378.561 129.497" stroke="black" stroke-width="2"/>
</svg>
