<!--?xml version="1.0" encoding="utf-8"?-->
<!-- Generator: Adobe Illustrator 18.0.0, SVG Export Plug-In . SVG Version: 6.00 Build 0)  -->

<svg version="1.1" id="_x32_" xmlns="http://www.w3.org/2000/svg" xmlns:xlink="http://www.w3.org/1999/xlink" x="0px" y="0px" viewBox="0 0 512 512" style="width: 256px; height: 256px; opacity: 1;" xml:space="preserve">
<style type="text/css">
	.st0{fill:#fff;}
</style>
<g>
	<path class="st0" d="M452.786,427.066l-3.633-23.125c-3.043-19.389-15.223-36.129-32.748-44.975l-76.414-38.648
		c-10.272-5.188-12.996-21.121-12.996-21.121c-0.644-1.039-1.844-1.602-3.051-1.414c-1.209,0.18-2.191,1.058-2.51,2.238
		l-8.949,34.434l-56.492,112.824l-56.482-112.824l-8.959-34.434c-0.308-1.18-1.301-2.059-2.51-2.238
		c-1.209-0.188-2.397,0.375-3.043,1.414c0,0-2.724,15.934-12.994,21.121l-76.424,38.648c-17.508,8.846-29.687,25.586-32.73,44.975
		l-3.642,23.125c-1.281,8.258,0.422,20.373,7.808,26.43C76.903,461.576,113.425,512,255.993,512
		c142.578,0,179.09-50.424,188.984-58.504C452.376,447.44,454.079,435.324,452.786,427.066z" style="fill: rgb(ff,ff,ff);"></path>
	<path class="st0" d="M183.427,173.959c-1.676-46.97,69.898-44.937,102.133-97.3c9.764,17.75,26.634,43.693,42.166,64.738
		c0.244,100.953,7.302,174.971,79.682,138.778c0,0-38.309-23.098-40.266-55.36c-3.362-55.367,4.26-95.916,0-124.676
		c-0.338-2.352-0.844-4.738-1.387-7.135C360.362,38.178,312.167,0.178,256.339,0.02C256.124,0,255.993,0,255.993,0
		c-62.231,0-104.446,54.844-111.149,100.139c-4.26,28.76,3.362,69.308,0,124.676c-1.957,32.262-40.267,55.36-40.267,55.36
		C178.39,317.088,186.114,249.279,183.427,173.959z" style="fill: rgb(ff,ff,ff);"></path>
</g>
</svg>
