<svg id="グループ_29" data-name="グループ 29" xmlns="http://www.w3.org/2000/svg" xmlns:xlink="http://www.w3.org/1999/xlink" width="24" height="30" viewBox="0 0 24 30">
  <defs>
    <clipPath id="clip-path">
      <rect id="長方形_69" data-name="長方形 69" width="24" height="30" fill="none"/>
    </clipPath>
  </defs>
  <!-- #1a1311 -->
  <!-- #3e3e3e -->
  <g id="グループ_28" data-name="グループ 28" clip-path="url(#clip-path)">
    <path id="パス_51" data-name="パス 51" d="M18.012,0a5.956,5.956,0,0,1,.864.353A2.455,2.455,0,0,1,20.1,2.485c.013.3,0,.605,0,.908q0,10.939,0,21.878a1.955,1.955,0,0,1-1.618,2.053,1.871,1.871,0,0,1-1.791-.576Q15.266,25.3,13.841,23.84q-1.407-1.435-2.815-2.87a1.237,1.237,0,0,0-1.95,0q-2.815,2.87-5.63,5.74a1.964,1.964,0,0,1-2.783.15A1.846,1.846,0,0,1,0,25.432Q0,13.945,0,2.458A2.489,2.489,0,0,1,1.922.058C1.979.044,2.034.02,2.09,0H18.012M1.582,13.912q0,5.6,0,11.192c0,.089,0,.179,0,.267a.38.38,0,0,0,.607.31,1.371,1.371,0,0,0,.234-.212l5.557-5.663a3.788,3.788,0,0,1,.327-.307,2.791,2.791,0,0,1,3.726.224q2.82,2.864,5.63,5.74a1.434,1.434,0,0,0,.254.229.378.378,0,0,0,.589-.286,1.958,1.958,0,0,0,.01-.293q0-11.179,0-22.358C18.52,1.929,18.2,1.6,17.4,1.6H2.737c-.844,0-1.155.315-1.155,1.17V13.912" transform="translate(0)" fill="#fff"/>
    <path id="パス_52" data-name="パス 52" d="M9.525,21.766V10.627c0-.856.311-1.17,1.155-1.17H25.34c.8,0,1.122.327,1.122,1.151q0,11.179,0,22.358a1.958,1.958,0,0,1-.01.293.378.378,0,0,1-.589.286,1.434,1.434,0,0,1-.254-.229q-2.815-2.87-5.63-5.74a2.791,2.791,0,0,0-3.726-.224,3.788,3.788,0,0,0-.327.307l-5.557,5.663a1.371,1.371,0,0,1-.234.212.38.38,0,0,1-.607-.31c-.009-.088,0-.178,0-.267q0-5.6,0-11.192" transform="translate(-7.942 -7.855)" fill="#cdb5ab"/>
    <path id="パス_53" data-name="パス 53" d="M41.462,15.529a5.956,5.956,0,0,1,.864.353,2.455,2.455,0,0,1,1.224,2.133c.013.3,0,.605,0,.908q0,10.939,0,21.878a1.955,1.955,0,0,1-1.618,2.053,1.871,1.871,0,0,1-1.791-.576q-1.427-1.453-2.851-2.908-1.407-1.435-2.815-2.87a1.237,1.237,0,0,0-1.95,0q-2.815,2.87-5.63,5.74a1.964,1.964,0,0,1-2.783.15,1.847,1.847,0,0,1-.659-1.429q-.008-11.487,0-22.974a2.489,2.489,0,0,1,1.917-2.4c.057-.014.112-.039.169-.058ZM25.032,29.441q0,5.6,0,11.192c0,.089,0,.179,0,.267a.38.38,0,0,0,.607.31A1.384,1.384,0,0,0,25.877,41l5.557-5.663a3.789,3.789,0,0,1,.327-.307,2.791,2.791,0,0,1,3.726.224q2.82,2.864,5.63,5.74a1.428,1.428,0,0,0,.254.229.378.378,0,0,0,.589-.286,1.958,1.958,0,0,0,.01-.293q0-11.179,0-22.358c0-.824-.319-1.151-1.122-1.151H26.187c-.844,0-1.155.315-1.155,1.17V29.441" transform="translate(-19.556 -12.898)" fill="#fff"/>
    <path id="パス_54" data-name="パス 54" d="M32.975,37.3V26.156c0-.856.311-1.17,1.155-1.17H48.79c.8,0,1.122.327,1.122,1.151q0,11.179,0,22.358a1.959,1.959,0,0,1-.01.293.378.378,0,0,1-.589.286,1.427,1.427,0,0,1-.254-.229q-2.815-2.87-5.63-5.74a2.791,2.791,0,0,0-3.726-.224,3.789,3.789,0,0,0-.327.307l-5.557,5.663a1.385,1.385,0,0,1-.234.212.38.38,0,0,1-.607-.31c-.009-.088,0-.178,0-.267q0-5.6,0-11.192" transform="translate(-27.499 -20.752)" fill="#fff"/>
  </g>
</svg>
